# xmcd CD database file
#
# Track frame offsets:
#	183
#	26123
#	73900
#	108835
#	157328
#	202313
#	267538
#
# Disc length: 3777 seconds
#
# Revision: 5
# Processed by: cddbd v1.5.2PL0 Copyright (c) Steve Scherf et al.
# Submitted via: CDex 1.51
#
DISCID=710ebf07
DTITLE=Uzeb - World Tour 90-CD 1
DYEAR=1990
DGENRE=Jazz
TTITLE0=Uzeb Club
TTITLE1=New Hit
TTITLE2=Riff 55 - Mister Moe
TTITLE3=Home - Blue'n Green
TTITLE4=Bella's Lullaby - Perrier Citron
TTITLE5=Not Even The Shadow Of The Tail Of A Lizard
TTITLE6=Donna Lee
EXTD=YEAR: 1990
EXTT0=
EXTT1=
EXTT2=
EXTT3=
EXTT4=
EXTT5=
EXTT6=
PLAYORDER=
